<svg width="147" height="147" viewBox="0 0 147 147" fill="none" xmlns="http://www.w3.org/2000/svg">
<g clip-path="url(#clip0_301_7)">
<path d="M117.457 12.9427C127.157 10.3519 136.131 19.0088 133.891 28.7959L117.684 99.6039C116.031 106.824 108.81 111.312 101.604 109.598L74.5624 103.165C60.3776 99.7902 49.1536 88.963 45.2709 74.9089L37.8688 48.1158C35.8964 40.9766 40.1221 33.5984 47.2779 31.6871L117.457 12.9427Z" fill="url(#paint0_linear_301_7)"/>
<path d="M12.2125 126.659C11.182 133.467 17.1796 139.254 23.9457 137.981L97.284 124.187C99.0511 123.855 99.1115 121.345 97.3624 120.928L64.8134 113.169C50.6399 109.789 39.4259 98.9691 35.5428 84.9253L26.6326 52.7002C26.1534 50.9671 23.6482 51.117 23.3791 52.8948L12.2125 126.659Z" fill="url(#paint1_linear_301_7)"/>
</g>
<defs>
<linearGradient id="paint0_linear_301_7" x1="98.8224" y1="92.039" x2="33.8269" y2="36.7569" gradientUnits="userSpaceOnUse">
<stop stop-color="#3C3C3B"/>
<stop offset="1" stop-color="#A5A5A5"/>
</linearGradient>
<linearGradient id="paint1_linear_301_7" x1="83.3591" y1="110.083" x2="23.8001" y2="49.474" gradientUnits="userSpaceOnUse">
<stop stop-color="#3C3C3B"/>
<stop offset="1" stop-color="#A5A5A5"/>
</linearGradient>
<clipPath id="clip0_301_7">
<rect width="147" height="147" fill="white"/>
</clipPath>
</defs>
</svg>
